<?xml version="1.0" standalone="no"?>
<!DOCTYPE svg PUBLIC "-//W3C//DTD SVG 20010904//EN"
 "http://www.w3.org/TR/2001/REC-SVG-20010904/DTD/svg10.dtd">
<svg version="1.0" xmlns="http://www.w3.org/2000/svg"
 width="437.000000pt" height="437.000000pt" viewBox="0 0 437.000000 437.000000"
 preserveAspectRatio="xMidYMid meet">
<metadata>
Created by potrace 1.11, written by Peter Selinger 2001-2013
</metadata>
<g transform="translate(0.000000,437.000000) scale(0.100000,-0.100000)"
fill="#000000" stroke="none">
<path d="M1990 3859 c-543 -63 -1043 -412 -1287 -899 -57 -112 -63 -127 -97
-220 -40 -114 -72 -268 -86 -424 -20 -218 20 -502 103 -716 155 -404 448 -724
835 -915 187 -92 346 -136 575 -161 146 -15 167 -15 314 0 228 24 386 68 582
163 347 169 608 433 776 786 131 274 181 551 157 859 -21 260 -98 499 -237
737 -72 123 -252 327 -375 426 -195 156 -434 275 -665 331 -162 39 -417 53
-595 33z m720 -510 c68 -15 169 -75 226 -133 30 -31 67 -85 90 -131 l39 -79 0
-130 c0 -131 0 -131 -37 -207 -22 -45 -58 -98 -87 -127 -98 -100 -186 -139
-343 -152 -126 -10 -167 -28 -212 -92 -60 -83 -31 -212 59 -268 27 -17 60 -24
138 -30 161 -14 252 -52 347 -149 196 -197 196 -487 1 -682 -197 -197 -494
-197 -691 1 -74 74 -109 138 -136 253 -25 108 -12 187 53 317 41 80 48 104 48
151 -1 108 -80 184 -192 184 -81 0 -130 -34 -187 -127 -79 -129 -168 -197
-303 -232 -74 -20 -139 -20 -217 -1 -232 55 -386 241 -389 470 -3 224 131 409
345 476 60 18 86 21 167 16 104 -6 155 -21 236 -72 59 -38 139 -123 177 -187
15 -26 46 -61 69 -78 35 -25 51 -30 99 -30 31 0 71 7 88 15 71 36 121 130 107
202 -3 19 -24 69 -45 111 -79 158 -82 314 -7 461 45 91 128 171 221 216 107
51 210 62 336 34z"/>
</g>
</svg>
