<?xml version="1.0" standalone="no"?>
<!DOCTYPE svg PUBLIC "-//W3C//DTD SVG 20010904//EN"
 "http://www.w3.org/TR/2001/REC-SVG-20010904/DTD/svg10.dtd">
<svg version="1.0" xmlns="http://www.w3.org/2000/svg"
 width="818.000000pt" height="818.000000pt" viewBox="0 0 818.000000 818.000000"
 preserveAspectRatio="xMidYMid meet">
<metadata>
Created by potrace 1.11, written by Peter Selinger 2001-2013
</metadata>
<g transform="translate(0.000000,818.000000) scale(0.100000,-0.100000)"
fill="#000000" stroke="none">
<path d="M0 4085 l0 -4085 4090 0 4090 0 0 4085 0 4085 -4090 0 -4090 0 0
-4085z m2491 1919 c114 -114 205 -212 202 -217 -3 -6 -1 -7 4 -4 12 7 36 -16
27 -25 -3 -3 3 -5 13 -4 11 0 18 -5 17 -16 -1 -10 4 -14 11 -11 13 4 42 -34
37 -50 -1 -5 2 -6 8 -2 5 3 114 -97 241 -222 405 -398 453 -443 521 -489 253
-170 553 -205 838 -98 133 49 300 170 399 287 13 15 30 26 37 23 9 -3 11 0 7
11 -5 13 -2 15 11 10 11 -4 15 -3 10 4 -8 14 96 110 110 102 6 -3 8 -2 3 2 -9
10 63 86 75 79 4 -3 6 1 4 8 -5 19 560 572 575 562 7 -4 9 -3 6 3 -9 14 63 84
77 76 6 -3 8 -2 3 2 -10 11 73 96 86 88 6 -3 7 -1 4 4 -4 6 11 27 33 47 l40
36 362 -1 362 -1 -215 -214 c-122 -122 -220 -212 -227 -209 -7 3 -10 0 -7 -5
8 -14 -124 -142 -138 -133 -5 3 -7 2 -4 -4 10 -17 -699 -716 -716 -706 -6 3
-7 1 -4 -4 4 -6 -66 -82 -156 -169 -176 -173 -283 -253 -444 -330 -452 -217
-987 -180 -1408 98 -113 74 -289 233 -278 251 3 7 2 9 -2 4 -11 -10 -96 73
-88 86 3 6 1 7 -5 3 -15 -9 -394 363 -385 378 3 6 2 8 -2 3 -11 -10 -86 63
-78 76 3 6 1 7 -4 4 -6 -4 -65 46 -131 111 -295 286 -411 405 -406 413 3 5 -1
7 -8 4 -7 -2 -90 72 -187 169 l-173 173 367 2 367 2 209 -207z m1886 -2168
c175 -40 334 -107 480 -202 137 -88 142 -93 888 -824 591 -580 694 -684 688
-693 -3 -6 -1 -7 4 -4 6 4 53 -33 104 -82 l94 -90 -366 0 c-338 -1 -367 0
-382 16 -8 10 -17 23 -19 28 -2 6 -6 9 -10 8 -6 -2 -180 166 -750 726 -119
118 -215 218 -211 224 3 6 2 7 -4 4 -5 -4 -55 37 -109 89 -125 121 -191 171
-295 222 -248 122 -532 126 -777 11 -118 -55 -186 -107 -358 -276 -688 -673
-946 -927 -1002 -985 l-66 -68 -370 0 -371 1 220 216 c121 119 295 290 387
381 109 107 171 161 179 157 7 -5 10 -4 5 3 -6 10 128 145 629 634 94 91 190
183 215 203 177 148 442 271 661 309 113 20 434 15 536 -8z"/>
</g>
</svg>
